<svg xmlns="http://www.w3.org/2000/svg" xmlns:xlink="http://www.w3.org/1999/xlink" width="300" zoomAndPan="magnify" viewBox="0 0 224.87999 74.999997" height="100" preserveAspectRatio="xMidYMid meet" version="1.0"><defs><clipPath id="20b655c2bc"><path d="M 0 0.0195312 L 224.761719 0.0195312 L 224.761719 74.980469 L 0 74.980469 Z M 0 0.0195312 " clip-rule="nonzero"/></clipPath><clipPath id="8535bc6ca6"><path d="M 7.496094 7.1875 L 185 7.1875 L 185 67.15625 L 7.496094 67.15625 Z M 7.496094 7.1875 " clip-rule="nonzero"/></clipPath><clipPath id="5b09c56a3a"><path d="M 114 8 L 217.382812 8 L 217.382812 67 L 114 67 Z M 114 8 " clip-rule="nonzero"/></clipPath></defs><g clip-path="url(#20b655c2bc)"><path fill="#ffffff" d="M 0 0.0195312 L 224.878906 0.0195312 L 224.878906 74.980469 L 0 74.980469 Z M 0 0.0195312 " fill-opacity="1" fill-rule="nonzero"/><path fill="#000000" d="M 0 0.0195312 L 224.878906 0.0195312 L 224.878906 74.980469 L 0 74.980469 Z M 0 0.0195312 " fill-opacity="1" fill-rule="nonzero"/></g><g clip-path="url(#8535bc6ca6)"><path fill="#ffffff" d="M 10.691406 66.894531 L 96.296875 11.511719 C 96.296875 11.511719 181.90625 66.894531 181.90625 66.894531 C 182.792969 67.46875 183.976562 67.214844 184.550781 66.328125 C 185.125 65.441406 184.871094 64.257812 183.984375 63.683594 C 183.984375 63.683594 97.335938 7.628906 97.335938 7.628906 C 96.707031 7.21875 95.890625 7.21875 95.261719 7.628906 C 95.261719 7.628906 8.613281 63.683594 8.613281 63.683594 C 7.726562 64.257812 7.472656 65.441406 8.046875 66.328125 C 8.621094 67.214844 9.804688 67.46875 10.691406 66.894531 Z M 10.691406 66.894531 " fill-opacity="1" fill-rule="evenodd"/></g><g clip-path="url(#5b09c56a3a)"><path fill="#ffffff" d="M 117.464844 22.835938 L 133.210938 12.648438 C 133.210938 12.648438 214.148438 65.746094 214.148438 65.746094 C 215.03125 66.324219 216.214844 66.078125 216.796875 65.195312 C 217.375 64.3125 217.128906 63.125 216.246094 62.546875 C 216.246094 62.546875 134.265625 8.765625 134.265625 8.765625 C 133.632812 8.351562 132.816406 8.347656 132.179688 8.761719 C 132.179688 8.761719 125.207031 13.269531 115.386719 19.625 C 114.5 20.199219 114.246094 21.382812 114.820312 22.269531 C 115.390625 23.15625 116.578125 23.410156 117.464844 22.835938 Z M 117.464844 22.835938 " fill-opacity="1" fill-rule="evenodd"/></g><path fill="#ffffff" d="M 57.191406 35.09375 L 57.191406 20.652344 C 57.191406 19.601562 56.335938 18.75 55.285156 18.75 L 39.355469 18.75 C 38.296875 18.75 37.449219 19.601562 37.449219 20.652344 L 37.449219 46.074219 C 37.449219 47.121094 38.296875 47.976562 39.355469 47.976562 C 40.40625 47.976562 41.261719 47.121094 41.261719 46.074219 L 41.261719 22.554688 C 41.261719 22.554688 53.378906 22.554688 53.378906 22.554688 L 53.378906 35.09375 C 53.378906 36.144531 54.234375 36.996094 55.285156 36.996094 C 56.335938 36.996094 57.191406 36.144531 57.191406 35.09375 Z M 57.191406 35.09375 " fill-opacity="1" fill-rule="evenodd"/></svg>